<svg width="148" height="160" viewBox="0 0 148 160" fill="none" xmlns="http://www.w3.org/2000/svg">
<path opacity="0.66" d="M0.832529 154.267L3.59788 129.773C13.3425 130.3 20.19 128.062 24.1406 123.058C28.0911 118.317 30.4614 111.864 31.2515 103.7C31.7782 95.799 31.9099 87.2396 31.6465 78.0217L0.832536 78.0217L0.832543 0.986637L58.115 0.986642L58.115 97.7743C58.115 118.58 52.7159 134.119 41.9179 144.39C31.1198 154.662 17.4247 157.954 0.832529 154.267ZM90.5092 154.267L93.2746 129.773C103.019 130.3 109.867 128.062 113.817 123.058C117.768 118.317 120.138 111.864 120.928 103.7C121.455 95.799 121.587 87.2396 121.323 78.0217L90.5092 78.0217L90.5092 0.986645L147.792 0.98665L147.792 97.7743C147.792 118.58 142.393 134.119 131.595 144.39C120.796 154.662 107.101 157.954 90.5092 154.267Z" fill="white"/>
</svg>
